<svg version="1.0" viewBox="0 0 65.183 65.183" xmlns="http://www.w3.org/2000/svg">
 <path d="m0 0v65.184h65.182v-65.184h-65.182zm13.283 6.252h14.256v5.4785h-7.7871v4.1582h7.0957v5.4766h-7.0957v9.7695h-6.4688v-24.883zm24.182 0.0058594h7.0625l9.4707 24.883h-6.8965l-1.4863-4.3242h-9.2383l-1.4863 4.3242h-6.8965l9.4707-24.883zm3.5312 7.3594-2.9043 8.2832h5.8086l-2.9043-8.2832zm-13.836 20.693c0.99 0 1.9629 0.10545 2.9199 0.31445s1.9635 0.53266 3.0195 0.97266v7.7227c-1.496-1.826-3.343-2.7402-5.543-2.7402-0.968 0-1.8664 0.1773-2.6914 0.5293s-1.533 0.83055-2.127 1.4355-1.0613 1.3242-1.4023 2.1602c-0.341 0.836-0.51172 1.739-0.51172 2.707 0 0.99 0.17072 1.9023 0.51172 2.7383 0.341 0.836 0.81297 1.5617 1.418 2.1777s1.3149 1.1011 2.1289 1.4531c0.814 0.352 1.6946 0.52734 2.6406 0.52734 2.068 0 3.9262-0.87867 5.5762-2.6387v7.6543l-0.66016 0.23242c-0.99 0.352-1.9135 0.61039-2.7715 0.77539s-1.705 0.24609-2.541 0.24609c-1.716 0-3.3606-0.32366-4.9336-0.97266s-2.9592-1.5613-4.1582-2.7383c-1.199-1.177-2.1607-2.5744-2.8867-4.1914-0.726-1.617-1.0898-3.3829-1.0898-5.2969s0.35726-3.6687 1.0723-5.2637 1.6721-2.97 2.8711-4.125 2.5918-2.0561 4.1758-2.7051 3.2444-0.97461 4.9824-0.97461zm18.553 0.007812c1.232 0 2.5174 0.17072 3.8594 0.51172s2.6293 0.84 3.8613 1.5l-2.5742 5.0508c-0.704-0.572-1.4073-0.99648-2.1113-1.2715s-1.3869-0.41211-2.0469-0.41211c-0.836 0-1.5169 0.19775-2.0449 0.59375s-0.79297 0.91278-0.79297 1.5508c0 0.44 0.13248 0.80384 0.39648 1.0898s0.61006 0.53319 1.0391 0.74219 0.91412 0.39092 1.4531 0.54492 1.0716 0.31814 1.5996 0.49414c2.112 0.704 3.6577 1.6453 4.6367 2.8223s1.4688 2.7115 1.4688 4.6035c0 1.276-0.21553 2.4308-0.64453 3.4648s-1.0559 1.9192-1.8809 2.6562-1.8362 1.3098-3.0352 1.7168c-1.199 0.407-2.5582 0.60938-4.0762 0.60938-3.146 0-6.0601-0.93469-8.7441-2.8047l2.7715-5.2148c0.968 0.858 1.9251 1.4961 2.8711 1.9141s1.8807 0.62695 2.8047 0.62695c1.056 0 1.8424-0.24061 2.3594-0.72461 0.517-0.484 0.77539-1.0344 0.77539-1.6504 0-0.374-0.065265-0.69766-0.19726-0.97266-0.132-0.275-0.35216-0.52877-0.66016-0.75977s-0.71008-0.44653-1.2051-0.64453-1.0929-0.41816-1.7969-0.66016c-0.836-0.264-1.656-0.55405-2.459-0.87305s-1.5195-0.74348-2.1465-1.2715-1.1326-1.1931-1.5176-1.9961c-0.385-0.803-0.57617-1.8207-0.57617-3.0527s0.20238-2.3486 0.60938-3.3496 0.9798-1.8592 1.7168-2.5742 1.6381-1.27 2.7051-1.666 2.262-0.59375 3.582-0.59375z" fill-rule="evenodd"/>
</svg>
